<svg fill="none" height="24" viewBox="0 0 24 24" width="24" xmlns="http://www.w3.org/2000/svg"><g fill="#0f0f0f"><path d="m6.014 8.00613c.11427-.90373 1.28877-2.13199 2.22088-1.9957l-.00149-.00149c.90712.17238 1.6252 1.73367 2.03011 2.43571.2869.50937.1006 1.02545-.167 1.24322-.361.29096-.92551.69243-.80707 1.09553.21057.7166 2.71057 3.2166 3.94017 3.9273.4654.269.8029-.4405 1.0911-.804.2094-.2796.7259-.4467 1.2341-.1707.759.442 1.474.9557 2.1352 1.534.3302.276.4077.6839.1789 1.115-.403.7593-1.5686 1.7606-2.4147 1.5571-1.4778-.3553-7.4542-2.6721-9.37387-9.38409-.10796-.31753-.08078-.43757-.06633-.55188z"/><path clip-rule="evenodd" d="m12 23c-1.2236 0-1.9006-.1313-3-.5l-2.10557 1.0528c-1.32981.6649-2.89443-.3021-2.89443-1.7889v-2.2639c-2.15345-2.008-3-4.3233-3-7.5 0-6.07513 4.92487-11 11-11 6.0751 0 11 4.92487 11 11 0 6.0751-4.9249 11-11 11zm-6-4.3697-.63605-.5931c-1.67308-1.56-2.36395-3.3041-2.36395-6.0372 0-4.97056 4.02944-9 9-9 4.9706 0 9 4.02944 9 9 0 4.9706-4.0294 9-9 9-.9857 0-1.448-.089-2.36405-.3962l-.78748-.2641-2.84847 1.4242z" fill-rule="evenodd"/></g></svg>